<svg xmlns="http://www.w3.org/2000/svg" width="1200" height="630" viewBox="0 0 1200 630">
  <rect width="1200" height="630" fill="#ffffff"/>

  <!-- Tabler device-gamepad-2 icon -->
  <g transform="translate(340, 240) scale(3.5)" fill="none" stroke="#7c3aed" stroke-width="1.5" stroke-linecap="round" stroke-linejoin="round">
    <path d="M12 5h3.5a5 5 0 0 1 0 10h-5.5l-4.015 4.227a2.3 2.3 0 0 1 -3.923 -2.035l1.634 -8.173a5 5 0 0 1 4.904 -4.019h3.4"/>
    <path d="M14 15l4.07 4.284a2.3 2.3 0 0 0 3.925 -2.023l-1.6 -8.232"/>
    <path d="M8 9v2"/>
    <path d="M7 10h2"/>
    <path d="M14 10h2"/>
  </g>

  <!-- crmarcade text, vertically centered with icon -->
  <text x="435" y="275" font-family="Inter, -apple-system, BlinkMacSystemFont, sans-serif" font-size="72" font-weight="700" letter-spacing="-1" dominant-baseline="central">
    <tspan fill="#111827">crm</tspan><tspan fill="#7c3aed">arcade</tspan>
  </text>

  <!-- Tagline centered below the icon+text group -->
  <text x="580" y="370" text-anchor="middle" font-family="Inter, -apple-system, BlinkMacSystemFont, sans-serif" font-size="24" fill="#6b7280" font-weight="400">
    The architect-curated directory of Salesforce ecosystem tools.
  </text>
</svg>
